<?xml version="1.0" encoding="iso-8859-1"?>
<!-- Generator: Adobe Illustrator 19.0.0, SVG Export Plug-In . SVG Version: 6.00 Build 0)  -->
<svg version="1.1" id="Capa_1" xmlns="http://www.w3.org/2000/svg" xmlns:xlink="http://www.w3.org/1999/xlink" x="0px" y="0px"
	 viewBox="0 0 512 512" style="enable-background:new 0 0 512 512;" xml:space="preserve">
<path style="fill:#FF5050;" d="M299.146,0c-26.154,0.028-36.842,21.103-37.643,22.028c-3.027,3.469-7.052,4.181-11.136-0.079
	c-14.048-24.717-47.834-29.421-68.046-9.18c-8.154,8.165-12.638,19.002-12.627,30.515c0.05,48.272,42.616,86.384,84.433,106.122
	c0.625,0.295,1.3,0.443,1.975,0.443c0.678,0,1.356-0.149,1.983-0.447c42.184-20.017,84.269-58.248,84.22-106.294
	C342.28,19.338,322.92,0,299.146,0z"/>
<path style="fill:#EE3E3E;" d="M190.299,43.285c-0.011-11.513,4.473-22.351,12.627-30.515c5.857-5.865,12.855-9.622,20.18-11.418
	c-27.435-6.696-53.439,14.177-53.412,41.933c0.05,48.271,42.616,86.384,84.433,106.122c0.625,0.295,1.3,0.443,1.975,0.443
	c0.678,0,1.356-0.149,1.984-0.447c1.932-0.917,4.771-2.323,8.246-4.21C227.404,124.515,190.346,88.323,190.299,43.285z"/>
<path style="fill:#AD7B64;" d="M312.519,288.043c2.212,4.345,6.337,7.028,10.805,7.028h125.852v200.297
	c0,9.185-6.652,16.631-14.857,16.631H255.502V183.302L312.519,288.043z"/>
<polygon style="fill:#966653;" points="255.502,183.302 255.502,512 275.408,512 275.408,219.87 "/>
<path style="fill:#AD7B64;" d="M199.481,288.043c-2.212,4.345-6.337,7.028-10.805,7.028H62.824v200.297
	c0,9.185,6.652,16.631,14.857,16.631h178.817V183.302L199.481,288.043z"/>
<path style="fill:#966653;" d="M82.73,495.369V295.072H62.824v200.297c0,9.185,6.652,16.631,14.857,16.631h19.906
	C89.382,512,82.73,504.554,82.73,495.369z"/>
<path style="fill:#9E6B57;" d="M495.912,298.414H321.334c-4.468,0-8.593-2.683-10.805-7.028l-55.027-108.083h183.903
	c6.041,0,11.617,3.627,14.608,9.502l47.89,94.066C504.524,292.018,501.204,298.414,495.912,298.414z"/>
<path style="fill:#875848;" d="M333.046,291.385L278.02,183.302h-22.517l55.027,108.083c2.212,4.345,6.337,7.028,10.805,7.028
	h22.517C339.383,298.414,335.259,295.731,333.046,291.385z"/>
<path style="fill:#9E6B57;" d="M16.088,298.414h174.578c4.468,0,8.593-2.683,10.805-7.028l55.027-108.083H72.595
	c-6.041,0-11.617,3.627-14.608,9.502l-47.89,94.066C7.476,292.018,10.796,298.414,16.088,298.414z"/>
<path style="fill:#875848;" d="M30.002,286.871l47.89-94.066c2.991-5.875,8.567-9.502,14.608-9.502H72.595
	c-6.041,0-11.617,3.627-14.608,9.502l-47.89,94.066c-2.62,5.147,0.7,11.543,5.992,11.543h19.906
	C30.702,298.414,27.382,292.018,30.002,286.871z"/>
<g>
</g>
<g>
</g>
<g>
</g>
<g>
</g>
<g>
</g>
<g>
</g>
<g>
</g>
<g>
</g>
<g>
</g>
<g>
</g>
<g>
</g>
<g>
</g>
<g>
</g>
<g>
</g>
<g>
</g>
</svg>
